<?xml version="1.0" encoding="utf-8"?>
<!-- Generator: Adobe Illustrator 25.4.1, SVG Export Plug-In . SVG Version: 6.00 Build 0)  -->
<svg version="1.1" id="图层_1" xmlns="http://www.w3.org/2000/svg" xmlns:xlink="http://www.w3.org/1999/xlink" x="0px" y="0px"
	 viewBox="0 0 1417 1417" style="enable-background:new 0 0 1417 1417;" xml:space="preserve">
<style type="text/css">
	.st0{fill:#CD1C30;}
	.st1{fill:#FFFFFF;}
</style>
<g>
	<path class="st0" d="M994.8,1417H422.2C189,1417,0,1228,0,994.8V422.2C0,189,189,0,422.2,0h572.6C1228,0,1417,189,1417,422.2v572.6
		C1417,1228,1228,1417,994.8,1417z"/>
	<rect x="239" y="1052.7" class="st1" width="917.8" height="127.7"/>
	<path class="st1" d="M1052.7,934.4H343.1c-57.5,0-104.1-46.6-104.1-104.1V366.7c0-57.5,46.6-104.1,104.1-104.1h709.6
		c57.5,0,104.1,46.6,104.1,104.1v463.6C1156.8,887.8,1110.2,934.4,1052.7,934.4z"/>
	<path class="st0" d="M1063.5,1052.7H332.3c-71.1,0-128.8-57.7-128.8-128.8V874c0-71.1,57.7-128.8,128.8-128.8h731.1
		c71.1,0,128.8,57.7,128.8,128.8v49.9C1192.3,995,1134.6,1052.7,1063.5,1052.7z"/>
	<rect x="331.2" y="359.6" class="st0" width="733.3" height="477.8"/>
	<polygon class="st1" points="811.8,657.9 617.5,499.6 617.5,816.2 	"/>
	<path class="st1" d="M429.5,1180.5h-61.6c-50.3,0-91.1-40.8-91.1-91.1V949.8c0-50.3,40.8-91.1,91.1-91.1h61.6
		c50.3,0,91.1,40.8,91.1,91.1v139.6C520.6,1139.7,479.8,1180.5,429.5,1180.5z"/>
	<path class="st1" d="M725.2,1180.5h-61.6c-50.3,0-91.1-40.8-91.1-91.1V949.8c0-50.3,40.8-91.1,91.1-91.1h61.6
		c50.3,0,91.1,40.8,91.1,91.1v139.6C816.2,1139.7,775.5,1180.5,725.2,1180.5z"/>
	<path class="st1" d="M1020.8,1180.5h-61.6c-50.3,0-91.1-40.8-91.1-91.1V949.8c0-50.3,40.8-91.1,91.1-91.1h61.6
		c50.3,0,91.1,40.8,91.1,91.1v139.6C1111.9,1139.7,1071.1,1180.5,1020.8,1180.5z"/>
</g>
</svg>
