<?xml version="1.0" encoding="utf-8"?>
<!-- Generator: Adobe Illustrator 25.4.1, SVG Export Plug-In . SVG Version: 6.00 Build 0)  -->
<svg version="1.1" id="图层_1" xmlns="http://www.w3.org/2000/svg" xmlns:xlink="http://www.w3.org/1999/xlink" x="0px" y="0px"
	 viewBox="0 0 1920 1080" style="enable-background:new 0 0 1920 1080;" xml:space="preserve">
<style type="text/css">
	.st0{fill:#CD1C30;}
	.st1{fill:#FFFFFF;}
</style>
<g>
	<path class="st0" d="M1354.7,1517H565.3c-321.5,0-582.1-260.6-582.1-582.1V145.1c0-321.5,260.6-582,582.1-582h789.4
		c321.5,0,582,260.6,582,582.1v789.4C1936.8,1256.4,1676.2,1517,1354.7,1517z"/>
	<rect x="312.8" y="1014.5" class="st1" width="1265.4" height="176.3"/>
	<path class="st1" d="M1434.8,851.5H456.3c-79.2,0-143.5-64.3-143.5-143.5V68.9c0-79.2,64.3-143.5,143.5-143.5h978.5
		c79.2,0,143.5,64.3,143.5,143.5V708C1578.2,787.2,1513.9,851.5,1434.8,851.5z"/>
	<path class="st0" d="M1449.7,1014.5H441.4c-97.9,0-177.6-79.6-177.6-177.6v-68.6c0-97.9,79.6-177.6,177.6-177.6h1007.8
		c97.9,0,177.6,79.6,177.6,177.6V837C1627.2,934.9,1547.6,1014.5,1449.7,1014.5z"/>
	<rect x="440.1" y="59.1" class="st0" width="1010.8" height="658.7"/>
	<polygon class="st1" points="1102.6,470.4 834.8,252 834.8,688.4 	"/>
	<path class="st1" d="M575.5,1190.8h-85.2c-69.4,0-125.6-56.2-125.6-125.6V872.8c0-69.4,56.2-125.6,125.6-125.6h85.2
		c69.4,0,125.6,56.2,125.6,125.6v192.5C701.1,1134.6,644.9,1190.8,575.5,1190.8z"/>
	<path class="st1" d="M983,1190.8h-85.2c-69.4,0-125.6-56.2-125.6-125.6V872.8c0-69.4,56.2-125.6,125.6-125.6H983
		c69.4,0,125.6,56.2,125.6,125.6v192.5C1108.6,1134.6,1052.4,1190.8,983,1190.8z"/>
	<path class="st1" d="M1390.9,1190.8h-85.2c-69.4,0-125.6-56.2-125.6-125.6V872.8c0-69.4,56.2-125.6,125.6-125.6h85.2
		c69.4,0,125.6,56.2,125.6,125.6v192.5C1516.1,1134.6,1459.9,1190.8,1390.9,1190.8z"/>
</g>
</svg>
